<svg xmlns="http://www.w3.org/2000/svg" xmlns:xlink="http://www.w3.org/1999/xlink" version="1.1" x="0px" y="0px" viewBox="0 0 100 125" enable-background="new 0 0 100 100" xml:space="preserve"><g><path style="fill:#511A82;" d="M82.224,52.195c0.045-0.45,0.068-0.904,0.068-1.365c0-7.468-6.051-13.522-13.521-13.522   c-5.563,0-10.339,3.361-12.414,8.162c-1.992-1.998-4.748-3.235-7.793-3.235c-5.711,0-10.404,4.348-10.954,9.915   c-4.722,0.121-8.515,3.979-8.515,8.732c0,4.829,3.915,8.744,8.744,8.744h43.417c4.829,0,8.744-3.915,8.744-8.744   C90,56.381,86.596,52.677,82.224,52.195z"/><path style="fill:#511A82;" d="M26.381,58.169c0-4.753,3.793-8.611,8.515-8.732c0.55-5.567,5.243-9.915,10.954-9.915c3.046,0,5.801,1.237,7.794,3.235   c1.335-3.086,3.787-5.571,6.845-6.958c-2.466-3.288-6.384-5.426-10.812-5.426c-5.564,0-10.337,3.361-12.413,8.162   c-1.993-1.998-4.749-3.235-7.794-3.235c-5.711,0-10.404,4.348-10.954,9.915C13.793,45.337,10,49.196,10,53.948   c0,4.828,3.915,8.743,8.744,8.743h8.908C26.851,61.371,26.381,59.826,26.381,58.169z"/></g></svg>