<svg xmlns="http://www.w3.org/2000/svg" xmlns:xlink="http://www.w3.org/1999/xlink" version="1.1" x="0px" y="0px" viewBox="0 0 100 125" enable-background="new 0 0 100 100" xml:space="preserve"><g><path style="fill:#1446A0;" d="M22,75c7.571-10.571,14.387-21.228,21.957-31.799c-3.989-0.187-7.989-0.376-11.98-0.567l-6.385-0.296l5.302-3.565   l24.11-16.212c-3.308-3.581-9.223-5.602-15.797-4.722c-9.235,1.239-15.846,7.562-14.763,14.123   c0.235,1.424,0.949,2.683,1.805,3.863c-0.062,0.052-0.085,0.109-0.145,0.163C11.492,40.547,1.57,49.898,3.168,59.604   C4.351,66.77,12.164,72.384,22,75z"/><path style="fill:#1446A0;" d="M87.828,40.505c4.681-2.687,7.481-5.626,7.014-8.451c-0.742-4.506-8.981-7.57-20.505-8.084   C71.778,27.367,69.223,31,66.664,34h9.133h5.441l-4.012,3.835L35.125,76.492c2.449-0.023,4.962-0.156,7.512-0.498   c11.474-1.537,20.681-6.205,26.451-12.025c0.737,0.039,1.374,0.263,2.128,0.263c13.015,0,23.566-6.217,23.566-13.888   C94.782,46.494,92.123,43.022,87.828,40.505z"/></g><polyline style="fill:#E94F37" points="33,40 88,3 62,36 76,36 8,98 49,41 "/></svg>