<svg xmlns="http://www.w3.org/2000/svg" xmlns:xlink="http://www.w3.org/1999/xlink" version="1.0" x="0px" y="0px" viewBox="0 0 32 40" enable-background="new 0 0 32 32" xml:space="preserve"><path style="fill:#00672E;" d="M20,26c0,3.316-2.688,6-6,6c-1.105,0-2-0.895-2-2s0.895-2,2-2s2-0.895,2-2s-0.895-2-2-2H2c-1.105,0-2-0.895-2-2s0.895-2,2-2  h12C17.312,20,20,22.688,20,26z M26,14H2c-1.105,0-2,0.895-2,2s0.895,2,2,2h24c1.105,0,2,0.895,2,2s-0.895,2-2,2s-2,0.895-2,2  s0.895,2,2,2c3.312,0,6-2.684,6-6C32,16.688,29.312,14,26,14z M2,12h20c3.312,0,6-2.684,6-6c0-3.312-2.688-6-6-6  c-1.105,0-2,0.895-2,2s0.895,2,2,2s2,0.895,2,2s-0.895,2-2,2H2c-1.105,0-2,0.895-2,2S0.895,12,2,12z"/></svg>