<svg xmlns="http://www.w3.org/2000/svg" xmlns:xlink="http://www.w3.org/1999/xlink" version="1.1" x="0px" y="0px" viewBox="0 0 100 125" enable-background="new 0 0 100 100" xml:space="preserve"><g><g><path d="M41.422,74.812c-5.257,0-11.522-2.655-19.174-10.308c-1.555-1.554-1.555-4.076,0-5.631c1.555-1.556,4.077-1.557,5.632,0    c12.489,12.49,17.354,8.085,24.715,1.423c7.533-6.819,17.848-16.158,35.704,1.699c1.556,1.555,1.556,4.076,0,5.631    c-1.555,1.556-4.076,1.556-5.631,0c-12.498-12.497-17.363-8.094-24.729-1.428C53.638,70.095,48.427,74.812,41.422,74.812z"/></g><g><path d="M31.11,48.237c-5.319,0-11.662-2.684-19.41-10.432c-1.555-1.556-1.555-4.076,0-5.632c1.556-1.555,4.077-1.555,5.633,0    c12.672,12.673,17.61,8.243,25.085,1.541c7.51-6.735,17.795-15.958,35.333,1.581c1.556,1.556,1.556,4.076,0,5.633    c-1.556,1.554-4.075,1.554-5.631,0c-12.205-12.206-17.052-7.863-24.385-1.284C43.401,43.53,38.154,48.237,31.11,48.237z"/></g></g></svg>